<?xml version="1.0" encoding="UTF-8"?>
<svg version="1.1" xmlns="http://www.w3.org/2000/svg" width="60" height="60">
<path d="M0 0 C19.8 0 39.6 0 60 0 C60 19.8 60 39.6 60 60 C40.2 60 20.4 60 0 60 C0 40.2 0 20.4 0 0 Z " fill="#44C118" transform="translate(0,0)"/>
<path d="M0 0 C-1.00219361 3.00658084 -1.71814977 4.75130862 -4.125 6.875 C-6.38301288 8.99841073 -6.38301288 8.99841073 -6.25 12.75 C-6.12625 14.35875 -6.12625 14.35875 -6 16 C-5.01 16 -4.02 16 -3 16 C-3.33 18.31 -3.66 20.62 -4 23 C-3.34 23 -2.68 23 -2 23 C-2.66 26.63 -3.32 30.26 -4 34 C-5.485 34.495 -5.485 34.495 -7 35 C-7.26554687 34.25234375 -7.53109375 33.5046875 -7.8046875 32.734375 C-8.15789063 31.74953125 -8.51109375 30.7646875 -8.875 29.75 C-9.22304688 28.77546875 -9.57109375 27.8009375 -9.9296875 26.796875 C-10.83274645 24.43705673 -11.82078418 22.23094884 -13 20 C-17.37146792 20.48571866 -19.0408299 21.83674921 -22 25 C-22.66 25 -23.32 25 -24 25 C-23.67 27.97 -23.34 30.94 -23 34 C-23.99 34 -24.98 34 -26 34 C-26.33 32.68 -26.66 31.36 -27 30 C-27.99 30 -28.98 30 -30 30 C-30 29.01 -30 28.02 -30 27 C-32.475 26.01 -32.475 26.01 -35 25 C-34.67 24.34 -34.34 23.68 -34 23 C-32.205625 23.2165625 -32.205625 23.2165625 -30.375 23.4375 C-27.57194137 23.4574506 -26.36887499 23.28707426 -24.1328125 21.546875 C-20.76206079 17.81635246 -20.76206079 17.81635246 -20 13 C-24.95 10.69 -29.9 8.38 -35 6 C-34.67 5.34 -34.34 4.68 -34 4 C-31.67624308 3.60539977 -29.3406065 3.27769908 -27 3 C-25.66082739 2.69096017 -24.32346746 2.37057089 -23 2 C-23 2.66 -23 3.32 -23 4 C-19.535 3.505 -19.535 3.505 -16 3 C-16 3.99 -16 4.98 -16 6 C-12.86128502 6.45932414 -10.77936223 6.56232465 -8.1484375 4.6640625 C-6.94530851 3.57356686 -5.7654416 2.45671442 -4.61328125 1.3125 C-3 0 -3 0 0 0 Z " fill="#F6FCF4" transform="translate(47,12)"/>
</svg>
